<svg xmlns="http://www.w3.org/2000/svg" viewBox="0 0 800 800" width="800" height="800" role="img" aria-label="plain-fabrics-trim placeholder product illustration">

  <defs>
    <filter id="softShadow" x="-20%" y="-20%" width="140%" height="150%">
      <feDropShadow dx="0" dy="16" stdDeviation="18" flood-color="#20262a" flood-opacity="0.14"/>
    </filter>
    <linearGradient id="card" x1="0" y1="0" x2="1" y2="1">
      <stop offset="0%" stop-color="#fbfaf7"/>
      <stop offset="100%" stop-color="#ebe7de"/>
    </linearGradient>
  </defs>

  <g filter="url(#softShadow)">
    <rect x="0" y="0" width="800" height="800" rx="0" fill="#f6f3ed"/><circle cx="132" cy="120" r="64" fill="#ece8df" opacity="0.65"/><circle cx="678" cy="166" r="94" fill="#ece8df" opacity="0.45"/><ellipse cx="400" cy="675" rx="255" ry="34" fill="#20262a" opacity="0.10"/><rect x="96" y="136" width="608" height="498" rx="38" fill="url(#card)" stroke="#ded9cf" stroke-width="2"/><ellipse cx="402" cy="624" rx="230" ry="40" fill="#d9d6cf" stroke="#c7c1b8" stroke-width="3"/><ellipse cx="402" cy="617" rx="196" ry="23" fill="#fbfaf7" stroke="#d4cec4" stroke-width="2"/><rect x="210" y="340" width="116" height="214" rx="18" fill="#8aa1a8" stroke="#2f3740" stroke-width="5"/><ellipse cx="268" cy="340" rx="60" ry="20" fill="#fbfaf7" stroke="#2f3740" stroke-width="4"/><rect x="346" y="370" width="110" height="184" rx="18" fill="#d8cbb7" stroke="#2f3740" stroke-width="5"/><ellipse cx="401" cy="370" rx="58" ry="20" fill="#fbfaf7" stroke="#2f3740" stroke-width="4"/><rect x="484" y="408" width="92" height="146" rx="18" fill="#ece8df" stroke="#2f3740" stroke-width="5"/><ellipse cx="530" cy="408" rx="48" ry="18" fill="#fbfaf7" stroke="#2f3740" stroke-width="4"/><circle cx="612" cy="510" r="36" fill="#fbfaf7" stroke="#2f3740" stroke-width="4"/><circle cx="612" cy="510" r="12" fill="#ece8df" stroke="#2f3740" stroke-width="3"/><line x1="236" y1="410" x2="304" y2="410" stroke="#fbfaf7" stroke-width="4" stroke-linecap="round"/><line x1="372" y1="440" x2="430" y2="440" stroke="#fbfaf7" stroke-width="4" stroke-linecap="round"/><circle cx="200" cy="584" r="13.12" fill="none" stroke="#2f3740" stroke-width="3.28"/><circle cx="239.36" cy="595.48" r="13.12" fill="none" stroke="#2f3740" stroke-width="3.28"/><line x1="212.3" y1="588.1" x2="298.4" y2="544.64" stroke="#2f3740" stroke-width="4.1" stroke-linecap="round"/><line x1="249.2" y1="589.74" x2="300.03999999999996" y2="634.84" stroke="#2f3740" stroke-width="4.1" stroke-linecap="round"/><ellipse cx="486" cy="594" rx="37.800000000000004" ry="19.8" fill="#fbfaf7" stroke="#2f3740" stroke-width="4"/><circle cx="486" cy="594" r="13.68" fill="#ece8df" stroke="#2f3740" stroke-width="3"/><line x1="457.2" y1="582" x2="514.8" y2="606" stroke="#6f7678" stroke-width="3" stroke-linecap="round"/><line x1="460.8" y1="606" x2="511.2" y2="582" stroke="#6f7678" stroke-width="3" stroke-linecap="round"/>
  </g>
</svg>
