<svg xmlns="http://www.w3.org/2000/svg" viewBox="0 0 800 800" width="800" height="800" role="img" aria-label="zaira placeholder product illustration">

  <defs>
    <filter id="softShadow" x="-20%" y="-20%" width="140%" height="150%">
      <feDropShadow dx="0" dy="16" stdDeviation="18" flood-color="#20262a" flood-opacity="0.14"/>
    </filter>
    <linearGradient id="card" x1="0" y1="0" x2="1" y2="1">
      <stop offset="0%" stop-color="#fbfaf7"/>
      <stop offset="100%" stop-color="#ebe7de"/>
    </linearGradient>
  </defs>

  <g filter="url(#softShadow)">
    <rect x="0" y="0" width="800" height="800" rx="0" fill="#f6f3ed"/><circle cx="132" cy="120" r="64" fill="#ece8df" opacity="0.65"/><circle cx="678" cy="166" r="94" fill="#ece8df" opacity="0.45"/><ellipse cx="400" cy="675" rx="255" ry="34" fill="#20262a" opacity="0.10"/><rect x="96" y="136" width="608" height="498" rx="38" fill="url(#card)" stroke="#ded9cf" stroke-width="2"/><ellipse cx="400" cy="626" rx="230" ry="40" fill="#d9d6cf" stroke="#c7c1b8" stroke-width="3"/><ellipse cx="400" cy="619" rx="196" ry="23" fill="#fbfaf7" stroke="#d4cec4" stroke-width="2"/><rect x="368" y="470" width="110" height="92" rx="8" fill="#d8cbb7" stroke="#2f3740" stroke-width="5"/><path d="M368 470 L423 426 L478 470" fill="#ece8df" stroke="#2f3740" stroke-width="5" stroke-linecap="round" stroke-linejoin="round"/><line x1="423" y1="426" x2="423" y2="562" stroke="#2f3740" stroke-width="4" stroke-linecap="round"/><rect x="232" y="460" width="104" height="98" rx="18" fill="#fbfaf7" stroke="#2f3740" stroke-width="5"/><path d="M284 460 C276 392 252 340 210 298" fill="none" stroke="#2f3740" stroke-width="5" stroke-linecap="round" stroke-linejoin="round"/><path d="M286 460 C306 382 350 330 414 292" fill="none" stroke="#2f3740" stroke-width="5" stroke-linecap="round" stroke-linejoin="round"/><path d="M286 460 C332 406 398 392 474 408" fill="none" stroke="#2f3740" stroke-width="5" stroke-linecap="round" stroke-linejoin="round"/><circle cx="210" cy="298" r="34" fill="#ece8df" stroke="#2f3740" stroke-width="4"/><circle cx="414" cy="292" r="38" fill="#8aa1a8" stroke="#2f3740" stroke-width="4"/><circle cx="474" cy="408" r="34" fill="#c9b8a2" stroke="#2f3740" stroke-width="4"/><circle cx="322" cy="346" r="30" fill="#ece8df" stroke="#2f3740" stroke-width="4"/><path d="M532 440 C582 390 624 414 628 470 C592 450 566 450 532 440 Z" fill="#8aa1a8" stroke="#2f3740" stroke-width="4" stroke-linecap="round" stroke-linejoin="round"/>
  </g>
</svg>
